<?xml version="1.0" encoding="UTF-8" standalone="no"?>
<!DOCTYPE svg PUBLIC "-//W3C//DTD SVG 1.1//EN" "http://www.w3.org/Graphics/SVG/1.1/DTD/svg11.dtd">
<svg version="1.1" xmlns="http://www.w3.org/2000/svg" xmlns:xlink="http://www.w3.org/1999/xlink" preserveAspectRatio="xMidYMid meet" viewBox="57.666810267843694 52.86393337451571 526.6663794643124 526.8757761126817" width="522.67" height="522.88"><defs><path d="M102.3 170.88C58.55 236.82 46.97 319.28 70.88 394.87C94.36 468.75 149.58 528.37 222.39 558.18C229.04 560.86 234.72 562.9 234.94 562.68C235.69 562.04 247.16 516.68 247.16 514.65C247.16 513.57 245.23 512.18 242.12 511C232.26 507.25 213.92 497.6 203.52 490.52C156.34 458.57 125.46 412.24 113.66 356.06C109.8 337.93 108.84 308.13 111.41 288.83C122.78 202.83 186.79 131.31 270.54 111.04C274.82 109.97 278.58 109.43 278.9 109.76C279.22 110.08 265.71 160.15 248.88 221.06C232.15 282.07 217.99 333.22 217.67 334.83C217.62 335.03 217.37 336.03 216.92 337.83C254.69 337.83 275.67 337.83 279.86 337.83C339.27 337.83 342.7 337.93 342.16 339.65C340.02 347.05 282.55 574.05 282.76 574.37C284.26 575.76 310.64 577.16 328.55 576.62C388.59 574.91 442.31 554.53 488.42 516.04C537.21 475.19 568.31 419.96 579.24 354.45C582.03 337.72 582.03 294.29 579.24 276.71C566.59 196.72 519.52 128.2 449.82 88.2C431.91 77.91 397.6 63.65 395.67 65.69C394.92 66.44 382.27 111.26 382.27 113.19C382.27 113.72 386.23 115.65 391.17 117.26C411.86 124.45 436.74 138.81 455.72 154.58C485.2 179.24 508.26 213.44 520.48 250.55C541.39 314.13 530.56 383.51 490.99 438.73C483.6 449.02 463.65 470.15 453.25 478.62C427.52 499.63 394.7 515.18 362.11 521.83C354.71 523.33 348.6 524.3 348.38 524.19C348.17 523.97 361.57 470.79 377.98 406.02C394.49 341.26 408 287.75 408 287.32C408 286.79 380.12 286.25 346.02 286.14C341.89 286.12 321.23 286.02 284.05 285.82C302.9 217.63 313.37 179.74 315.46 172.16C332.73 109.65 346.88 57.75 346.88 56.79C346.88 55.39 345.06 54.96 336.48 54.43C326.19 53.68 312.46 53.68 302.92 54.43C221 60.32 147.33 103.11 102.3 170.88Z" id="byOBTa9is"></path></defs><g><g><use xlink:href="#byOBTa9is" opacity="1" fill="#000000" fill-opacity="1"></use><g><use xlink:href="#byOBTa9is" opacity="1" fill-opacity="0" stroke="#000000" stroke-width="1" stroke-opacity="0"></use></g></g></g></svg>