<?xml version="1.0" encoding="UTF-8" standalone="no"?>
<svg
   xmlns:dc="http://purl.org/dc/elements/1.1/"
   xmlns:cc="http://creativecommons.org/ns#"
   xmlns:rdf="http://www.w3.org/1999/02/22-rdf-syntax-ns#"
   xmlns:svg="http://www.w3.org/2000/svg"
   xmlns="http://www.w3.org/2000/svg"
   xmlns:xlink="http://www.w3.org/1999/xlink"
   xmlns:sodipodi="http://sodipodi.sourceforge.net/DTD/sodipodi-0.dtd"
   xmlns:inkscape="http://www.inkscape.org/namespaces/inkscape"
   sodipodi:docname="logo_blue.svg"
   inkscape:version="1.0 (4035a4f, 2020-05-01)"
   id="svg8"
   version="1.1"
   viewBox="0 0 84.666666 84.666666"
   height="84.666664mm"
   width="84.666664mm">
  <defs
     id="defs2">
    <path
       d="m 102.3,170.88 c -43.75,65.94 -55.33,148.4 -31.42,223.99 23.48,73.88 78.7,133.5 151.51,163.31 6.65,2.68 12.33,4.72 12.55,4.5 0.75,-0.64 12.22,-46 12.22,-48.03 0,-1.08 -1.93,-2.47 -5.04,-3.65 -9.86,-3.75 -28.2,-13.4 -38.6,-20.48 -47.18,-31.95 -78.06,-78.28 -89.86,-134.46 -3.86,-18.13 -4.82,-47.93 -2.25,-67.23 11.37,-86 75.38,-157.52 159.13,-177.79 4.28,-1.07 8.04,-1.61 8.36,-1.28 0.32,0.32 -13.19,50.39 -30.02,111.3 -16.73,61.01 -30.89,112.16 -31.21,113.77 -0.05,0.2 -0.3,1.2 -0.75,3 37.77,0 58.75,0 62.94,0 59.41,0 62.84,0.1 62.3,1.82 -2.14,7.4 -59.61,234.4 -59.4,234.72 1.5,1.39 27.88,2.79 45.79,2.25 60.04,-1.71 113.76,-22.09 159.87,-60.58 48.79,-40.85 79.89,-96.08 90.82,-161.59 2.79,-16.73 2.79,-60.16 0,-77.74 C 566.59,196.72 519.52,128.2 449.82,88.2 431.91,77.91 397.6,63.65 395.67,65.69 c -0.75,0.75 -13.4,45.57 -13.4,47.5 0,0.53 3.96,2.46 8.9,4.07 20.69,7.19 45.57,21.55 64.55,37.32 29.48,24.66 52.54,58.86 64.76,95.97 20.91,63.58 10.08,132.96 -29.49,188.18 -7.39,10.29 -27.34,31.42 -37.74,39.89 -25.73,21.01 -58.55,36.56 -91.14,43.21 -7.4,1.5 -13.51,2.47 -13.73,2.36 -0.21,-0.22 13.19,-53.4 29.6,-118.17 16.51,-64.76 30.02,-118.27 30.02,-118.7 0,-0.53 -27.88,-1.07 -61.98,-1.18 -4.13,-0.02 -24.79,-0.12 -61.97,-0.32 18.85,-68.19 29.32,-106.08 31.41,-113.66 17.27,-62.51 31.42,-114.41 31.42,-115.37 0,-1.4 -1.82,-1.83 -10.4,-2.36 -10.29,-0.75 -24.02,-0.75 -33.56,0 C 221,60.32 147.33,103.11 102.3,170.88 Z"
       id="byOBTa9is" />
  </defs>
  <sodipodi:namedview
     inkscape:window-maximized="1"
     inkscape:window-y="23"
     inkscape:window-x="0"
     inkscape:window-height="1395"
     inkscape:window-width="2560"
     showgrid="false"
     inkscape:document-rotation="0"
     inkscape:current-layer="layer1"
     inkscape:document-units="mm"
     inkscape:cy="207.70786"
     inkscape:cx="11.06127"
     inkscape:zoom="1.979899"
     inkscape:pageshadow="2"
     inkscape:pageopacity="0.0"
     borderopacity="1.0"
     bordercolor="#666666"
     pagecolor="#ffffff"
     id="base" />
  <metadata
     id="metadata5">
    <rdf:RDF>
      <cc:Work
         rdf:about="">
        <dc:format>image/svg+xml</dc:format>
        <dc:type
           rdf:resource="http://purl.org/dc/dcmitype/StillImage" />
        <dc:title />
      </cc:Work>
    </rdf:RDF>
  </metadata>
  <g
     transform="translate(-64.079277,-141.86191)"
     id="layer1"
     inkscape:groupmode="layer"
     inkscape:label="Layer 1">
    <rect
       y="141.86191"
       x="64.079277"
       height="84.666664"
       width="84.666664"
       id="rect21"
       style="fill:#80a7bf;stroke-width:0.56476" />
    <g
       style="fill:#ffffff;fill-opacity:1"
       transform="matrix(0.14551053,0,0,0.14551053,59.848449,138.31536)"
       id="g19">
      <g
         style="fill:#ffffff;fill-opacity:1"
         id="g17">
        <use
           style="fill:#ffffff;fill-opacity:1"
           height="100%"
           width="100%"
           y="0"
           x="0"
           id="use15"
           stroke-opacity="0"
           stroke-width="1"
           stroke="#000000"
           fill-opacity="0"
           opacity="1"
           xlink:href="#byOBTa9is" />
      </g>
      <use
         style="fill:#ffffff;fill-opacity:1"
         height="100%"
         width="100%"
         y="0"
         x="0"
         id="use13"
         fill-opacity="1"
         fill="#000000"
         opacity="1"
         xlink:href="#byOBTa9is" />
    </g>
  </g>
</svg>
