<?xml version="1.0" standalone="no"?>
<!DOCTYPE svg PUBLIC "-//W3C//DTD SVG 20010904//EN"
 "http://www.w3.org/TR/2001/REC-SVG-20010904/DTD/svg10.dtd">
<svg version="1.0" xmlns="http://www.w3.org/2000/svg"
 width="2830.000000pt" height="1913.000000pt" viewBox="0 0 2830.000000 1913.000000"
 preserveAspectRatio="xMidYMid meet">
<metadata>
Created by potrace 1.15, written by Peter Selinger 2001-2017
</metadata>
<g transform="translate(0.000000,1913.000000) scale(0.100000,-0.100000)"
fill="#000000" stroke="none">
<path d="M7390 12003 c-764 -55 -1451 -454 -1871 -1086 -408 -615 -516 -1384
-293 -2089 219 -689 734 -1245 1413 -1523 62 -25 115 -44 117 -42 7 6 114 429
114 448 0 10 -18 23 -47 34 -92 35 -263 125 -360 191 -440 298 -728 730 -838
1254 -36 169 -45 447 -21 627 106 802 703 1469 1484 1658 40 10 75 15 78 12 3
-3 -123 -470 -280 -1038 -156 -569 -288 -1046 -291 -1061 l-7 -28 587 0 c554
0 586 -1 581 -17 -20 -69 -556 -2186 -554 -2189 14 -13 260 -26 427 -21 560
16 1061 206 1491 565 455 381 745 896 847 1507 26 156 26 561 0 725 -118 746
-557 1385 -1207 1758 -167 96 -487 229 -505 210 -7 -7 -125 -425 -125 -443 0
-5 37 -23 83 -38 193 -67 425 -201 602 -348 275 -230 490 -549 604 -895 195
-593 94 -1240 -275 -1755 -69 -96 -255 -293 -352 -372 -240 -196 -546 -341
-850 -403 -69 -14 -126 -23 -128 -22 -2 2 123 498 276 1102 154 604 280 1103
280 1107 0 5 -260 10 -578 11 l-578 3 293 1060 c161 583 293 1067 293 1076 0
13 -17 17 -97 22 -96 7 -224 7 -313 0z"/>
<path d="M10440 10908 c0 -7 217 -604 482 -1326 l482 -1312 215 2 215 3 153
390 c95 242 206 553 294 820 l141 430 139 -410 c77 -225 212 -596 302 -822
l162 -413 215 0 215 0 473 1313 c259 722 472 1319 472 1325 0 9 -66 12 -282
10 l-282 -3 -295 -932 c-163 -513 -298 -933 -302 -933 -3 0 -151 421 -329 935
l-324 935 -167 0 -166 0 -313 -932 c-172 -513 -316 -936 -319 -940 -3 -4 -144
415 -312 930 l-306 937 -281 3 c-222 2 -282 0 -282 -10z"/>
<path d="M21370 9595 l0 -1325 235 0 234 0 3 538 3 537 26 67 c84 216 250 330
459 315 194 -13 324 -129 366 -326 11 -52 14 -180 14 -598 l0 -533 235 0 235
0 0 543 c0 673 -10 774 -99 962 -125 264 -337 388 -666 387 -219 -1 -360 -53
-501 -185 l-74 -69 0 506 0 506 -235 0 -235 0 0 -1325z"/>
<path d="M16960 10635 c-107 -13 -196 -24 -197 -24 -2 -1 -3 -107 -3 -236 l0
-235 -175 0 -175 0 0 -205 0 -205 174 0 175 0 4 -482 c4 -537 4 -539 75 -688
66 -141 207 -251 372 -291 84 -21 326 -18 425 5 107 25 187 55 182 69 -2 7
-32 96 -66 200 -35 103 -63 187 -64 187 -1 0 -33 -11 -72 -25 -50 -17 -91 -25
-143 -25 -116 0 -175 34 -218 125 l-24 50 0 438 0 437 255 0 255 0 0 205 0
205 -255 0 -255 0 0 260 0 260 -37 -1 c-21 -1 -126 -12 -233 -24z"/>
<path d="M18465 10635 c-110 -13 -201 -23 -202 -24 -2 -1 -3 -107 -3 -236 l0
-235 -170 0 -170 0 0 -205 0 -205 169 0 169 0 4 -477 c4 -453 5 -482 26 -556
60 -218 179 -349 376 -414 74 -25 94 -27 241 -27 112 0 181 5 230 17 107 25
180 53 179 68 -2 21 -115 373 -123 381 -4 4 -38 -3 -76 -17 -49 -17 -91 -25
-143 -25 -111 0 -171 32 -215 115 -21 39 -22 51 -25 488 l-3 447 256 0 255 0
0 205 0 205 -255 0 -255 0 0 260 0 260 -32 -1 c-18 -1 -123 -12 -233 -24z"/>
<path d="M20245 10175 c-380 -67 -646 -304 -743 -663 -24 -90 -26 -112 -26
-307 0 -197 2 -216 27 -309 89 -329 316 -553 652 -643 92 -24 116 -27 295 -27
173 -1 204 2 278 22 149 40 289 117 400 217 l54 48 -154 154 c-84 84 -157 153
-162 153 -4 0 -24 -14 -43 -30 -83 -74 -222 -120 -358 -120 -255 0 -449 143
-509 376 -20 78 -21 232 -1 308 40 151 135 270 269 336 187 92 390 73 567 -55
l47 -34 99 102 c55 56 121 126 148 155 l48 53 -29 30 c-85 89 -260 189 -394
224 -90 23 -357 29 -465 10z"/>
<path d="M15035 10173 c-58 -8 -190 -45 -246 -68 -206 -87 -373 -254 -458
-460 -91 -218 -105 -537 -35 -784 50 -176 153 -340 277 -442 80 -65 239 -143
347 -169 121 -30 329 -38 433 -16 184 38 341 130 428 249 l27 37 6 -47 c3 -27
8 -83 12 -125 l6 -78 219 0 219 0 0 935 0 935 -225 0 -225 0 0 -54 c0 -29 -3
-80 -6 -113 l-6 -60 -72 72 c-54 54 -93 82 -157 114 -128 63 -216 81 -378 80
-75 -1 -149 -4 -166 -6z m374 -428 c223 -59 372 -252 388 -501 22 -350 -225
-609 -562 -591 -258 13 -447 173 -500 424 -65 306 89 582 370 664 75 22 230
24 304 4z"/>
</g>
</svg>
